<svg width="218" height="218" viewBox="0 0 218 218" fill="none" xmlns="http://www.w3.org/2000/svg">
<g clip-path="url(#clip0_27_3888)">
<path d="M181.234 0L218 0V35.2334L181.234 35.2334V0Z" fill="url(#paint0_linear_27_3888)"/>
<path d="M145.234 0L181.233 0V35.2334L145.234 35.2334V0Z" fill="#62B099"/>
<path d="M108.809 0L145.234 0V35.2334L108.809 35.2334L108.809 0Z" fill="#28A5AA"/>
<path d="M72.4682 0L108.809 0L108.809 35.2334L72.4682 35.2334L72.4682 0Z" fill="url(#paint1_linear_27_3888)"/>
<path d="M36.0422 0L72.4678 0L72.4678 35.2334L36.0422 35.2334L36.0422 0Z" fill="url(#paint2_linear_27_3888)"/>
<path d="M-0.000389099 0L36.1484 0L36.1484 35.2334L-0.000389099 35.2334L-0.000389099 0Z" fill="#005D7D"/>
<path d="M181.234 35.2334L218 35.2334V71.5525L181.234 71.5525V35.2334Z" fill="url(#paint3_linear_27_3888)"/>
<path d="M145.234 35.2334L181.233 35.2334V71.5525L145.234 71.5525V35.2334Z" fill="url(#paint4_linear_27_3888)"/>
<path d="M108.809 35.2334L145.128 35.2334V71.5525L108.809 71.5525L108.809 35.2334Z" fill="url(#paint5_linear_27_3888)"/>
<path d="M72.5315 35.2334L108.851 35.2334L108.851 71.5525L72.5315 71.5525L72.5315 35.2334Z" fill="#3FC4B6"/>
<path d="M36.1066 35.2334L72.4258 35.2334L72.4258 71.5525L36.1066 71.5525L36.1066 35.2334Z" fill="#169FAD"/>
<path d="M-0.000389099 35.2334L36.1484 35.2334L36.1484 71.5525L-0.000389099 71.5525L-0.000389099 35.2334Z" fill="#036C93"/>
<path d="M181.234 71.659L218 71.659V107.978L181.234 107.978V71.659Z" fill="#F3D30F"/>
<path d="M181.277 108.085L218.043 108.085V144.404H181.277V108.085Z" fill="#F6CC00"/>
<path d="M181.277 180.531H218.043V218H181.277V180.531Z" fill="#F5D302"/>
<path d="M145.234 180.531H181.233V218H145.234V180.531Z" fill="#F1DF1A"/>
<path d="M108.894 180.531H145.234V218H108.894L108.894 180.531Z" fill="#DEE552"/>
<path d="M72.4682 180.531H108.809L108.809 218H72.4682L72.4682 180.531Z" fill="#C6E687"/>
<path d="M36.1488 180.531H72.4893L72.4893 218H36.1488L36.1488 180.531Z" fill="#9FE1A7"/>
<path d="M-0.000389099 180.531H36.1484L36.1484 218H-0.000389099L-0.000389099 180.531Z" fill="#8FDFB5"/>
<path d="M181.277 144.404H218.043V180.553H181.277V144.404Z" fill="#F7CB01"/>
<path d="M0.000587463 144.404H36.1494L36.1494 180.553H0.000587463L0.000587463 144.404Z" fill="url(#paint6_linear_27_3888)"/>
<path d="M36.1488 144.404H72.4893L72.4893 180.553H36.1488L36.1488 144.404Z" fill="url(#paint7_linear_27_3888)"/>
<path d="M72.4682 144.404H108.809L108.809 180.553H72.4682L72.4682 144.404Z" fill="url(#paint8_linear_27_3888)"/>
<path d="M108.681 144.404H145.234V180.553H108.681L108.681 144.404Z" fill="url(#paint9_linear_27_3888)"/>
<path d="M145.234 144.404H181.383V180.553H145.234V144.404Z" fill="#F0D615"/>
<path d="M145.188 71.504L181.158 71.504V107.91L145.188 107.91V71.504Z" fill="url(#paint10_linear_27_3888)"/>
<path d="M108.809 71.7441L145.234 71.7441V107.893L108.809 107.893L108.809 71.7441Z" fill="url(#paint11_linear_27_3888)"/>
<path d="M72.4895 71.5312L108.915 71.5312L108.915 107.957L72.4895 107.957L72.4895 71.5312Z" fill="#37CCBF"/>
<path d="M36.0637 71.6377L72.4893 71.6377L72.4893 107.914L36.0637 107.914L36.0637 71.6377Z" fill="#22AFB8"/>
<path d="M-0.000389099 71.6377L36.042 71.6377L36.042 107.914L-0.000389099 107.914L-0.000389099 71.6377Z" fill="url(#paint12_linear_27_3888)"/>
<path d="M-0.000389099 107.872L36.1484 107.872L36.1484 144.382H-0.000389099L-0.000389099 107.872Z" fill="#1FB7C5"/>
<path d="M36.1488 107.872L72.4893 107.872L72.4893 144.382H36.1488L36.1488 107.872Z" fill="#2AC2BF"/>
<path d="M72.4896 107.872L108.83 107.872L108.83 144.382H72.4896L72.4896 107.872Z" fill="#4FD2BD"/>
<path d="M108.829 107.978L145.17 107.978V144.489H108.829L108.829 107.978Z" fill="url(#paint13_linear_27_3888)"/>
<path d="M145.234 107.872L181.233 107.872V144.382H145.234V107.872Z" fill="url(#paint14_linear_27_3888)"/>
</g>
<defs>
<linearGradient id="paint0_linear_27_3888" x1="217.615" y1="-0.384607" x2="181.62" y2="35.6104" gradientUnits="userSpaceOnUse">
<stop stop-color="#A4A531"/>
<stop offset="1" stop-color="#7BC49E"/>
</linearGradient>
<linearGradient id="paint1_linear_27_3888" x1="108.809" y1="17.6129" x2="72.4759" y2="17.6129" gradientUnits="userSpaceOnUse">
<stop stop-color="#19909B"/>
<stop offset="1" stop-color="#016785"/>
</linearGradient>
<linearGradient id="paint2_linear_27_3888" x1="72.4537" y1="18.2433" x2="36.0445" y2="16.9817" gradientUnits="userSpaceOnUse">
<stop offset="0.0102334" stop-color="#12768E"/>
<stop offset="1" stop-color="#03607D"/>
</linearGradient>
<linearGradient id="paint3_linear_27_3888" x1="218.143" y1="50.7639" x2="180.518" y2="56.0816" gradientUnits="userSpaceOnUse">
<stop offset="0.0169846" stop-color="#D4BD0B"/>
<stop offset="1" stop-color="#C8E162"/>
</linearGradient>
<linearGradient id="paint4_linear_27_3888" x1="181.423" y1="50.8119" x2="144.487" y2="56.0321" gradientUnits="userSpaceOnUse">
<stop offset="0.0169846" stop-color="#BDC648"/>
<stop offset="0.9993" stop-color="#A3E19C"/>
</linearGradient>
<linearGradient id="paint5_linear_27_3888" x1="145.291" y1="50.7921" x2="108.071" y2="56.0525" gradientUnits="userSpaceOnUse">
<stop offset="0.0169846" stop-color="#86C58D"/>
<stop offset="1" stop-color="#54D5BF"/>
</linearGradient>
<linearGradient id="paint6_linear_27_3888" x1="36.1416" y1="162.466" x2="0.00265236" y2="162.466" gradientUnits="userSpaceOnUse">
<stop offset="0.0163439" stop-color="#85DEB6"/>
<stop offset="1" stop-color="#51D4C5"/>
</linearGradient>
<linearGradient id="paint7_linear_27_3888" x1="72.4848" y1="162.466" x2="36.1431" y2="162.466" gradientUnits="userSpaceOnUse">
<stop offset="0.0163439" stop-color="#85DEB6"/>
<stop offset="1" stop-color="#51D4C5"/>
</linearGradient>
<linearGradient id="paint8_linear_27_3888" x1="107.621" y1="157.979" x2="72.4848" y2="167.261" gradientUnits="userSpaceOnUse">
<stop offset="0.0163439" stop-color="#B8E38B"/>
<stop offset="1" stop-color="#74DBB2"/>
</linearGradient>
<linearGradient id="paint9_linear_27_3888" x1="133.638" y1="169.139" x2="107.851" y2="143.352" gradientUnits="userSpaceOnUse">
<stop offset="0.0163439" stop-color="#D1E566"/>
<stop offset="1" stop-color="#D8E155"/>
</linearGradient>
<linearGradient id="paint10_linear_27_3888" x1="172.396" y1="99.001" x2="145.627" y2="72.4434" gradientUnits="userSpaceOnUse">
<stop offset="0.0137595" stop-color="#B9DE70"/>
<stop offset="0.9993" stop-color="#D8DF52"/>
</linearGradient>
<linearGradient id="paint11_linear_27_3888" x1="136.306" y1="99.0931" x2="109.566" y2="72.3525" gradientUnits="userSpaceOnUse">
<stop offset="0.0137595" stop-color="#53D2B8"/>
<stop offset="1" stop-color="#81DAA5"/>
</linearGradient>
<linearGradient id="paint12_linear_27_3888" x1="36.016" y1="71.7899" x2="-0.792597" y2="108.598" gradientUnits="userSpaceOnUse">
<stop offset="0.0137595" stop-color="#12A3BA"/>
<stop offset="1" stop-color="#0C739D"/>
</linearGradient>
<linearGradient id="paint13_linear_27_3888" x1="145.212" y1="108.026" x2="108.783" y2="144.455" gradientUnits="userSpaceOnUse">
<stop offset="0.0137595" stop-color="#C9E065"/>
<stop offset="1" stop-color="#62D6B4"/>
</linearGradient>
<linearGradient id="paint14_linear_27_3888" x1="181.365" y1="108.01" x2="145.109" y2="144.267" gradientUnits="userSpaceOnUse">
<stop offset="0.0131188" stop-color="#F6CC00"/>
<stop offset="1" stop-color="#BBDE67"/>
</linearGradient>
<clipPath id="clip0_27_3888">
<rect width="218" height="218" fill="white" transform="matrix(-1 0 0 1 218 0)"/>
</clipPath>
</defs>
</svg>
