<svg width="188" height="205" viewBox="0 0 188 205" fill="none" xmlns="http://www.w3.org/2000/svg">
<path d="M7.22607 70.658C7.22607 24.996 33.217 0 93.8625 0C154.308 0 180.499 25.191 180.499 70.658C180.499 116.32 154.308 141.71 93.8625 141.71C33.217 141.71 7.22607 116.519 7.22607 70.658ZM145.059 70.658C145.059 42.7103 130.88 29.7204 93.8625 29.7204C56.8447 29.7204 42.6655 42.5153 42.6655 70.658C42.6655 99.0001 57.0355 111.994 93.8625 111.994C130.685 111.994 145.059 98.805 145.059 70.658Z" fill="#FFCF2F"/>
<path d="M93.7046 204.558L85.7738 197.714C75.3019 188.681 63.4989 181.56 50.6812 176.55C34.9367 170.39 18.3595 167.612 1.26641 168.323L0.273438 144.068C20.6707 143.249 40.6387 146.556 59.5313 153.946C71.755 158.727 83.2154 165.103 93.7046 172.961C104.202 165.107 115.659 158.727 127.878 153.946C146.775 146.552 166.691 143.245 187.136 144.068L186.143 168.323C169.102 167.608 152.473 170.395 136.728 176.55C123.919 181.56 112.112 188.681 101.635 197.714L93.7046 204.558Z" fill="#FFCF2F"/>
</svg>
