<svg width="1014" height="101" viewBox="0 0 1014 101" fill="none" xmlns="http://www.w3.org/2000/svg">
<path d="M154.667 45.2677V71.4939H139.472V65.0497C130.284 69.5513 120.125 72.3787 107.846 72.3787C93.2688 72.3787 84.1703 67.6981 84.1703 55.955C84.1703 42.4442 99.0116 38.207 115.53 38.207C124.453 38.207 132.669 39.6207 139.472 41.9153C139.472 32.0252 126.751 31.2299 119.683 31.2299C112.88 31.2299 104.575 31.8483 93.8875 35.0276L88.4968 23.9903C99.0972 20.5465 109.523 18.6039 120.389 18.6039C142.123 18.6 154.49 25.5771 154.667 45.2677ZM139.472 51.2744C134.171 49.5963 127.015 48.0951 117.386 48.0951C106.079 48.0951 99.2742 50.0377 99.2742 55.3346C99.2742 60.8105 104.311 61.2519 112.172 61.2519C120.389 61.2519 131.696 58.6929 139.47 55.3346V51.2744H139.472Z" fill="#02ABC2"/>
<path d="M222.057 32.112L183.1 58.8671H222.057V71.4951H160.748V58.8671L199.706 32.112H160.748V19.484H222.057V32.112Z" fill="#02ABC2"/>
<path d="M297.403 45.268V71.4942H282.207V65.0499C273.019 69.5516 262.862 72.379 250.581 72.379C236.006 72.379 226.906 67.6984 226.906 55.9552C226.906 42.4445 241.747 38.2073 258.267 38.2073C267.189 38.2073 275.406 39.621 282.207 41.9155C282.207 32.0255 269.486 31.2302 262.419 31.2302C255.618 31.2302 247.313 31.8486 236.623 35.0279L231.234 23.9906C241.835 20.5468 252.26 18.6042 263.125 18.6042C284.859 18.6003 297.226 25.5774 297.403 45.268ZM282.207 51.2747C276.906 49.5966 269.753 48.0954 260.121 48.0954C248.815 48.0954 242.012 50.038 242.012 55.3349C242.012 60.8108 247.046 61.2522 254.91 61.2522C263.125 61.2522 274.431 58.6932 282.205 55.3349V51.2747H282.207Z" fill="#02ABC2"/>
<path d="M374.776 19.484V93.5716H359.58V63.4582C353.927 69.3755 344.916 72.3779 333.697 72.3779C316.912 72.3779 302.69 65.4028 302.69 45.5333C302.69 25.6657 316.914 18.6012 333.697 18.6012C344.916 18.6012 353.925 21.6911 359.58 27.5189V19.484H374.776ZM359.582 45.5333C359.582 35.2018 352.25 31.2291 338.734 31.2291C325.219 31.2291 317.798 35.2018 317.798 45.5333C317.798 55.7772 325.217 59.7519 338.734 59.7519C352.25 59.7519 359.582 55.7772 359.582 45.5333Z" fill="#02ABC2"/>
<path d="M397.382 50.2131C397.382 56.7468 402.683 59.7512 422.824 59.7512C439.521 59.7512 444.556 57.8961 444.556 53.0405C444.556 47.9185 441.023 47.0357 420.97 46.0634C394.024 44.8267 383.336 40.5895 383.336 26.7248C383.336 13.1265 397.205 8.79987 420.349 8.79987C443.671 8.79987 457.806 14.6277 457.806 29.9041H441.904C441.904 23.104 435.103 21.4278 418.583 21.4278C402.948 21.4278 399.238 22.929 399.238 27.5201C399.238 32.2882 402.948 33.171 420.97 34.2308C445.351 35.555 460.457 36.8793 460.457 52.5077C460.457 69.0209 444.822 72.3772 421.941 72.3772C396.588 72.3772 381.48 68.0486 381.48 50.2131H397.382Z" fill="#02ABC2"/>
<path d="M465.303 45.5333C465.303 26.3716 479.79 18.6012 501.345 18.6012C522.812 18.6012 537.389 26.3716 537.389 45.5333C537.389 64.6075 522.812 72.3779 501.345 72.3779C479.79 72.3779 465.303 64.6075 465.303 45.5333ZM522.194 45.5333C522.194 34.6729 515.303 31.2291 501.345 31.2291C487.299 31.2291 480.409 34.6729 480.409 45.5333C480.409 56.3061 487.299 59.7519 501.345 59.7519C515.303 59.7519 522.194 56.3061 522.194 45.5333Z" fill="#02ABC2"/>
<path d="M577.748 18.6012C597.182 18.6012 610.874 24.9599 613.348 40.2344H597.89C595.857 33.5237 588.702 31.2272 577.748 31.2272C564.76 31.2272 556.81 34.671 556.81 45.5313C556.81 56.3042 564.76 59.7499 577.748 59.7499C588.702 59.7499 595.857 57.4515 597.89 50.7408H613.348C610.876 66.0173 597.182 72.376 577.748 72.376C556.193 72.376 541.706 64.6055 541.706 45.5313C541.706 26.3716 556.193 18.6012 577.748 18.6012Z" fill="#02ABC2"/>
<path d="M634.186 0.852509V14.0094H619.08V0.852509H634.186ZM634.186 19.4833V71.4944H619.08V19.4833H634.186Z" fill="#02ABC2"/>
<path d="M695.669 52.8623H710.688C707.242 66.1087 694.344 72.3779 675.087 72.3779C655.299 72.3779 639.926 64.6075 639.926 45.5333C639.926 26.3716 654.857 18.6012 675.968 18.6012C695.757 18.6012 711.571 25.4013 711.571 49.0666H655.386C657.065 57.3679 665.014 60.1058 675.087 60.1058C685.509 60.1058 691.868 58.1612 695.669 52.8623ZM655.915 39.441H695.403C692.843 32.112 685.421 30.0818 675.881 30.0818C665.545 30.0818 658.3 32.112 655.915 39.441Z" fill="#02ABC2"/>
<path d="M741.505 32.1114V47.1234C741.505 57.1904 743.448 59.7514 752.636 59.7514C757.406 59.7514 760.056 59.7514 766.153 58.8666V71.0551C761.116 71.936 755.374 72.3793 748.395 72.3793C734.968 72.3793 726.31 67.3449 726.31 55.8681V32.1114H712.616V19.4835H726.31V8.71061L741.505 4.38397V19.4835H766.153V32.1114H741.505Z" fill="#02ABC2"/>
<path d="M845.472 19.484L810.314 93.5717H793.616L804.129 71.4951H796.355L769.412 19.484H786.195L808.456 62.3984L828.775 19.484H845.472Z" fill="#02ABC2"/>
<path d="M858.359 59.6622V71.4948H843.253V59.6622H858.359Z" fill="#02ABC2"/>
<path d="M938.039 45.5327C938.039 65.4022 923.726 72.3774 907.031 72.3774C895.81 72.3774 886.714 69.2875 881.058 63.3702V71.4945H865.952V0.852646H881.058V27.6078C886.712 21.6925 895.81 18.6006 907.031 18.6006C923.726 18.6006 938.039 25.6652 938.039 45.5327ZM922.845 45.5327C922.845 35.2013 915.511 31.2286 901.996 31.2286C888.48 31.2286 881.058 35.2013 881.058 45.5327C881.058 55.7767 888.478 59.7513 901.996 59.7513C915.511 59.7513 922.845 55.7767 922.845 45.5327Z" fill="#02ABC2"/>
<path d="M998.098 52.8619H1013.12C1009.67 66.1083 996.773 72.3775 977.516 72.3775C957.727 72.3775 942.355 64.6071 942.355 45.5329C942.355 26.3712 957.286 18.6008 978.397 18.6008C998.186 18.6008 1014 25.4009 1014 49.0662H957.815C959.494 57.3675 967.443 60.1054 977.516 60.1054C987.939 60.1054 994.299 58.1609 998.098 52.8619ZM958.346 39.4406H997.833C995.273 32.1116 987.852 30.0815 978.312 30.0815C967.976 30.0815 960.731 32.1116 958.346 39.4406Z" fill="#02ABC2"/>
<path d="M41.9172 100.573L38.3591 97.5028C33.661 93.4504 28.3656 90.2554 22.6151 88.0075C15.5514 85.2443 8.11419 83.9979 0.445492 84.3168L0 73.435C9.15109 73.0675 18.1096 74.5512 26.5856 77.8667C32.0697 80.0115 37.2113 82.872 41.9172 86.3974C46.627 82.8739 51.7667 80.0115 57.2488 77.8667C65.7267 74.5493 74.6619 73.0656 83.8344 73.435L83.3889 84.3168C75.7435 83.9959 68.283 85.2463 61.2193 88.0075C55.4726 90.2554 50.1753 93.4504 45.4753 97.5028L41.9172 100.573Z" fill="#FFCF2F"/>
<path d="M2.90979 40.5002C2.90979 20.0143 14.5704 8.79999 41.7786 8.79999C68.8972 8.79999 80.6473 20.1018 80.6473 40.5002C80.6473 60.9861 68.8972 72.3773 41.7786 72.3773C14.5704 72.3773 2.90979 61.0755 2.90979 40.5002ZM64.7477 40.5002C64.7477 27.9617 58.3863 22.1338 41.7786 22.1338C25.1708 22.1338 18.8094 27.8742 18.8094 40.5002C18.8094 53.2156 25.2564 59.0454 41.7786 59.0454C58.2988 59.0454 64.7477 53.1281 64.7477 40.5002Z" fill="#FFCF2F"/>
</svg>
